<!-- Generator: Adobe Illustrator 19.1.1, SVG Export Plug-In  -->
<svg version="1.1"
	 xmlns="http://www.w3.org/2000/svg" xmlns:xlink="http://www.w3.org/1999/xlink" xmlns:a="http://ns.adobe.com/AdobeSVGViewerExtensions/3.0/"
	 x="0px" y="0px" width="55.256px" height="55.22px" viewBox="0 0 55.256 55.22" style="enable-background:new 0 0 55.256 55.22;"
	 xml:space="preserve">
<style type="text/css">
	.st0{opacity:0.6;fill:#939598;}
	.st1{fill:none;stroke:#FFFFFF;stroke-linecap:round;stroke-miterlimit:10;}
</style>
<defs>
</defs>
<path class="st0" d="M54.756,27.628c0,3.324-0.598,6.508-1.692,9.452c-3.837,10.322-13.778,17.677-25.436,17.677
	c-1.129,0-2.242-0.069-3.335-0.203C10.884,52.909,0.5,41.481,0.5,27.628c0-6.043,1.976-11.625,5.318-16.135
	C10.76,4.824,18.689,0.5,27.628,0.5C42.611,0.5,54.756,12.646,54.756,27.628z"/>
<line class="st1" x1="27.628" y1="0.5" x2="27.628" y2="54.72"/>
<path class="st1" d="M20.263,1.588c0,0-20.035,31.113,0,52.4"/>
<path class="st1" d="M35.084,1.588c0,0,20.035,31.113,0,52.4"/>
<path class="st1" d="M53.828,20.2c0,0-31.113-20.035-52.4,0"/>
<path class="st1" d="M53.828,35.02c0,0-31.113,20.035-52.4,0"/>
<line class="st1" x1="0.5" y1="27.628" x2="54.756" y2="27.628"/>
</svg>